# xmcd
#
# Track frame offsets:
#	150
#	9712
#	18454
#	27420
#	37980
#	47657
#	57083
#	67072
#	76439
#	87338
#	96924
#	105934
#	115131
#	123315
#	132659
#	142036
#	151789
#	159049
#	168758
#	178293
#	188008
#	196865
#
# Disc length: 2757 seconds
#
# Revision: 1
# Processed by: cddbd v1.5.2PL0 Copyright (c) Steve Scherf et al.
# Submitted via: audiograbber 1.83.01
#
DISCID=1d0ac316
DTITLE=Martin, Janis - Cracker Jack
DYEAR=2009
DGENRE=Country
TTITLE0=Drugstore Rock And Roll
TTITLE1=Will You, Willyum
TTITLE2=Ooby Dooby
TTITLE3=One More Year To Go
TTITLE4=My Boy Elvis
TTITLE5=Little Bit
TTITLE6=Barefoot Baby
TTITLE7=Let's Elope Baby
TTITLE8=Two Long Years
TTITLE9=Love Me To Pieces
TTITLE10=Love And Kisses
TTITLE11=I'll Never Be Free
TTITLE12=Just Squeeze Me (But Don't Tease Me)
TTITLE13=My Confession
TTITLE14=I Don't Hurt Anymore
TTITLE15=Half Loved
TTITLE16=All Right, Baby
TTITLE17=Billy Boy, Billy Boy
TTITLE18=Cracker Jack
TTITLE19=Good Love
TTITLE20=Bang Bang
TTITLE21=Please Be My Love
EXTD=
EXTT0=
EXTT1=
EXTT2=
EXTT3=
EXTT4=
EXTT5=
EXTT6=
EXTT7=
EXTT8=
EXTT9=
EXTT10=
EXTT11=
EXTT12=
EXTT13=
EXTT14=
EXTT15=
EXTT16=
EXTT17=
EXTT18=
EXTT19=
EXTT20=
EXTT21=
PLAYORDER=
